<mxfile host="app.diagrams.net" modified="2022-05-19T05:07:23.237Z" agent="5.0 (Macintosh; Intel Mac OS X 10_15_7) AppleWebKit/605.1.15 (KHTML, like Gecko) Version/15.5 Safari/605.1.15" etag="U1-r8UEajBWAWY7owmvO" version="18.0.7" type="github">
  <diagram id="qJh4Tfe-B-9KsJ8jKObU" name="Page-1">
    <mxGraphModel dx="1941" dy="882" grid="1" gridSize="10" guides="1" tooltips="1" connect="1" arrows="1" fold="1" page="1" pageScale="1" pageWidth="850" pageHeight="1100" math="0" shadow="0">
      <root>
        <mxCell id="0" />
        <mxCell id="1" parent="0" />
        <mxCell id="EBMkzUaa5GbAWt32uatU-6" style="edgeStyle=orthogonalEdgeStyle;rounded=0;orthogonalLoop=1;jettySize=auto;html=1;exitX=0.5;exitY=1;exitDx=0;exitDy=0;strokeWidth=2;" edge="1" parent="1" source="EBMkzUaa5GbAWt32uatU-1" target="EBMkzUaa5GbAWt32uatU-2">
          <mxGeometry relative="1" as="geometry" />
        </mxCell>
        <mxCell id="EBMkzUaa5GbAWt32uatU-17" style="edgeStyle=orthogonalEdgeStyle;rounded=0;orthogonalLoop=1;jettySize=auto;html=1;exitX=0.5;exitY=1;exitDx=0;exitDy=0;entryX=0.5;entryY=0;entryDx=0;entryDy=0;strokeWidth=2;" edge="1" parent="1" source="EBMkzUaa5GbAWt32uatU-1" target="EBMkzUaa5GbAWt32uatU-11">
          <mxGeometry relative="1" as="geometry" />
        </mxCell>
        <mxCell id="EBMkzUaa5GbAWt32uatU-1" value="app" style="rounded=0;whiteSpace=wrap;html=1;strokeWidth=2;" vertex="1" parent="1">
          <mxGeometry x="365" y="60" width="120" height="60" as="geometry" />
        </mxCell>
        <mxCell id="EBMkzUaa5GbAWt32uatU-12" style="edgeStyle=orthogonalEdgeStyle;rounded=0;orthogonalLoop=1;jettySize=auto;html=1;exitX=0.5;exitY=1;exitDx=0;exitDy=0;entryX=0.5;entryY=0;entryDx=0;entryDy=0;strokeWidth=2;" edge="1" parent="1" source="EBMkzUaa5GbAWt32uatU-2" target="EBMkzUaa5GbAWt32uatU-3">
          <mxGeometry relative="1" as="geometry" />
        </mxCell>
        <mxCell id="EBMkzUaa5GbAWt32uatU-13" style="edgeStyle=orthogonalEdgeStyle;rounded=0;orthogonalLoop=1;jettySize=auto;html=1;exitX=0.5;exitY=1;exitDx=0;exitDy=0;entryX=0.408;entryY=-0.033;entryDx=0;entryDy=0;entryPerimeter=0;strokeWidth=2;" edge="1" parent="1" source="EBMkzUaa5GbAWt32uatU-2" target="EBMkzUaa5GbAWt32uatU-7">
          <mxGeometry relative="1" as="geometry" />
        </mxCell>
        <mxCell id="EBMkzUaa5GbAWt32uatU-14" style="edgeStyle=orthogonalEdgeStyle;rounded=0;orthogonalLoop=1;jettySize=auto;html=1;exitX=0.5;exitY=1;exitDx=0;exitDy=0;entryX=0.5;entryY=0;entryDx=0;entryDy=0;strokeWidth=2;" edge="1" parent="1" source="EBMkzUaa5GbAWt32uatU-2" target="EBMkzUaa5GbAWt32uatU-8">
          <mxGeometry relative="1" as="geometry" />
        </mxCell>
        <mxCell id="EBMkzUaa5GbAWt32uatU-15" style="edgeStyle=orthogonalEdgeStyle;rounded=0;orthogonalLoop=1;jettySize=auto;html=1;exitX=0.5;exitY=1;exitDx=0;exitDy=0;entryX=0.5;entryY=0;entryDx=0;entryDy=0;strokeWidth=2;" edge="1" parent="1" source="EBMkzUaa5GbAWt32uatU-2" target="EBMkzUaa5GbAWt32uatU-10">
          <mxGeometry relative="1" as="geometry" />
        </mxCell>
        <mxCell id="EBMkzUaa5GbAWt32uatU-16" style="edgeStyle=orthogonalEdgeStyle;rounded=0;orthogonalLoop=1;jettySize=auto;html=1;exitX=0.5;exitY=1;exitDx=0;exitDy=0;strokeWidth=2;" edge="1" parent="1" source="EBMkzUaa5GbAWt32uatU-2" target="EBMkzUaa5GbAWt32uatU-9">
          <mxGeometry relative="1" as="geometry" />
        </mxCell>
        <mxCell id="EBMkzUaa5GbAWt32uatU-2" value="routes" style="rounded=0;whiteSpace=wrap;html=1;strokeWidth=2;" vertex="1" parent="1">
          <mxGeometry x="270" y="220" width="120" height="60" as="geometry" />
        </mxCell>
        <mxCell id="EBMkzUaa5GbAWt32uatU-21" style="edgeStyle=orthogonalEdgeStyle;rounded=0;orthogonalLoop=1;jettySize=auto;html=1;exitX=0.5;exitY=1;exitDx=0;exitDy=0;entryX=0.5;entryY=0;entryDx=0;entryDy=0;strokeWidth=2;" edge="1" parent="1" source="EBMkzUaa5GbAWt32uatU-3" target="EBMkzUaa5GbAWt32uatU-20">
          <mxGeometry relative="1" as="geometry" />
        </mxCell>
        <mxCell id="EBMkzUaa5GbAWt32uatU-3" value="index" style="rounded=0;whiteSpace=wrap;html=1;strokeWidth=2;" vertex="1" parent="1">
          <mxGeometry x="20" y="340" width="120" height="60" as="geometry" />
        </mxCell>
        <mxCell id="EBMkzUaa5GbAWt32uatU-7" value="user" style="rounded=0;whiteSpace=wrap;html=1;strokeWidth=2;" vertex="1" parent="1">
          <mxGeometry x="190" y="340" width="120" height="60" as="geometry" />
        </mxCell>
        <mxCell id="EBMkzUaa5GbAWt32uatU-8" value="call" style="rounded=0;whiteSpace=wrap;html=1;strokeWidth=2;" vertex="1" parent="1">
          <mxGeometry x="365" y="340" width="120" height="60" as="geometry" />
        </mxCell>
        <mxCell id="EBMkzUaa5GbAWt32uatU-9" value="blog" style="rounded=0;whiteSpace=wrap;html=1;strokeWidth=2;" vertex="1" parent="1">
          <mxGeometry x="710" y="340" width="120" height="60" as="geometry" />
        </mxCell>
        <mxCell id="EBMkzUaa5GbAWt32uatU-10" value="post" style="rounded=0;whiteSpace=wrap;html=1;strokeWidth=2;" vertex="1" parent="1">
          <mxGeometry x="550" y="340" width="120" height="60" as="geometry" />
        </mxCell>
        <mxCell id="EBMkzUaa5GbAWt32uatU-18" style="edgeStyle=orthogonalEdgeStyle;rounded=0;orthogonalLoop=1;jettySize=auto;html=1;exitX=1;exitY=0.5;exitDx=0;exitDy=0;strokeWidth=2;" edge="1" parent="1" source="EBMkzUaa5GbAWt32uatU-11">
          <mxGeometry relative="1" as="geometry">
            <mxPoint x="770" y="249.76470588235293" as="targetPoint" />
          </mxGeometry>
        </mxCell>
        <mxCell id="EBMkzUaa5GbAWt32uatU-11" value="module" style="rounded=0;whiteSpace=wrap;html=1;strokeWidth=2;" vertex="1" parent="1">
          <mxGeometry x="500" y="220" width="120" height="60" as="geometry" />
        </mxCell>
        <mxCell id="EBMkzUaa5GbAWt32uatU-19" value="MongoDB" style="rounded=0;whiteSpace=wrap;html=1;strokeWidth=2;" vertex="1" parent="1">
          <mxGeometry x="710" y="220" width="120" height="60" as="geometry" />
        </mxCell>
        <mxCell id="EBMkzUaa5GbAWt32uatU-24" style="edgeStyle=orthogonalEdgeStyle;rounded=0;orthogonalLoop=1;jettySize=auto;html=1;exitX=0.5;exitY=1;exitDx=0;exitDy=0;entryX=0.5;entryY=0;entryDx=0;entryDy=0;strokeWidth=2;" edge="1" parent="1" source="EBMkzUaa5GbAWt32uatU-20" target="EBMkzUaa5GbAWt32uatU-23">
          <mxGeometry relative="1" as="geometry" />
        </mxCell>
        <mxCell id="EBMkzUaa5GbAWt32uatU-20" value="main controller" style="rounded=0;whiteSpace=wrap;html=1;strokeWidth=2;" vertex="1" parent="1">
          <mxGeometry x="-170" y="440" width="120" height="60" as="geometry" />
        </mxCell>
        <mxCell id="EBMkzUaa5GbAWt32uatU-23" value="index.ejs" style="rounded=0;whiteSpace=wrap;html=1;strokeWidth=2;fillColor=#fff2cc;strokeColor=#d6b656;" vertex="1" parent="1">
          <mxGeometry x="-170" y="550" width="120" height="60" as="geometry" />
        </mxCell>
      </root>
    </mxGraphModel>
  </diagram>
</mxfile>
